# WaveFront *.obj file (generated by Autodesk ATF)

mtllib 064ca1cf-7500-43a2-abec-6a14b6b7e342.mtl

g Body1

v 0.866025 0.500000 -0.353214
v -0.000000 0.000000 1.061000
v -0.000000 -1.000000 -0.353214
v -0.866025 0.500000 -0.353214
vt 0.000000 0.000000 0.000000
vt -2.199705 3.810000 0.000000
vt -4.399409 0.000000 0.000000
vt 0.000000 0.000000 0.000000
vt -2.199705 3.810000 0.000000
vt -4.399409 -0.000000 0.000000
vt 0.000000 0.000000 0.000000
vt -2.199705 3.810000 0.000000
vt -4.399409 0.000000 0.000000
vt 2.199705 1.905000 0.000000
vt -2.199705 1.905000 0.000000
vt 0.000000 -1.905000 0.000000
vn 2.073901 -1.197367 0.846667
vn 2.073901 -1.197367 0.846667
vn 2.073901 -1.197367 0.846667
vn -2.073901 -1.197367 0.846667
vn -2.073901 -1.197367 0.846667
vn -2.073901 -1.197367 0.846667
vn 0.000000 2.394735 0.846667
vn 0.000000 2.394735 0.846667
vn 0.000000 2.394735 0.846667
vn 0.000000 0.000000 -2.540000
vn 0.000000 0.000000 -2.540000
vn 0.000000 0.000000 -2.540000
usemtl Steel_-_Satin
f 1/1/1 2/2/2 3/3/3
f 3/4/4 2/5/5 4/6/6
f 4/7/7 2/8/8 1/9/9
f 4/10/10 1/11/11 3/12/12
# 4 vertices
# 12 texture params
# 12 normals
# 4 facets

# 1 groups
